<?xml version="1.0" encoding="UTF-8"?>
<svg width="180px" height="180px" viewBox="0 0 180 180" version="1.1" xmlns="http://www.w3.org/2000/svg" xmlns:xlink="http://www.w3.org/1999/xlink">
    <!-- Generator: Sketch 63.1 (92452) - https://sketch.com -->
    <title>Artboard Copy 2</title>
    <desc>Created with Sketch.</desc>
    <g id="Artboard-Copy-2" stroke="none" stroke-width="1" fill="none" fill-rule="evenodd">
        <path d="M77.5315929,48.0281104 L81.2183297,48.0281104 C82.8247872,48.0281104 84.1461402,49.2935768 84.2155261,50.8985351 C84.6856375,61.7726453 84.9646441,69.6719286 85.0525457,74.596385 C85.1404718,79.5222046 85.1474098,87.646481 85.0733598,98.9692142 C85.0625744,100.618376 83.7226215,101.949595 82.073424,101.949595 L49.6529227,101.949595 C48.031854,101.949595 46.703994,100.661817 46.6543273,99.0415096 C46.33807,88.7240422 46.1227626,81.0746496 46.0084051,76.0933318 C45.8933374,71.0810756 45.7420893,62.7420708 45.5542654,51.0763174 C45.5280308,49.4196697 46.8494322,48.0551142 48.5060801,48.0281104 C48.5221434,48.0281104 48.5382085,48.0281104 48.5542654,48.0281104 L66.5361372,48.0281104 L68.5361372,48.0281104" id="Path" stroke="#697386" stroke-width="1.5" stroke-linecap="round"></path>
        <path d="M77.5060614,48.0281104 L77.5060614,60.8486238 C77.5060614,60.9477509 77.4327989,61.0281104 77.342425,61.0281104 C77.2965567,61.0281104 77.2527941,61.0069936 77.2217998,60.9699066 L73.1266866,56.069814 C73.0656187,55.996742 72.9621077,55.9918056 72.8954883,56.0587883 C72.8919935,56.062302 72.8886397,56.0659808 72.8854362,56.069814 L68.790323,60.9699066 C68.7292551,61.0429786 68.6257441,61.047915 68.5591246,60.9809323 C68.5253126,60.946936 68.5060614,60.8989347 68.5060614,60.8486238 L68.5060614,48.0281104" id="Path" stroke="#697386" stroke-width="1.5" stroke-linecap="round"></path>
        <line x1="52.5060614" y1="73.6014438" x2="74.6029103" y2="73.6014438" id="Path-29" stroke="#697386" stroke-width="1.5" stroke-linecap="round"></line>
        <line x1="52.5060614" y1="80.3881104" x2="65.429577" y2="80.3881104" id="Path-29" stroke="#697386" stroke-width="1.5" stroke-linecap="round"></line>
        <line x1="52.5060614" y1="87.1214438" x2="59.6962437" y2="87.1214438" id="Path-29" stroke="#697386" stroke-width="1.5" stroke-linecap="round"></line>
        <line x1="43.0121227" y1="84.0203434" x2="42" y2="48.0358775" id="Path-29-Copy" stroke="#697386" stroke-width="1.5" stroke-linecap="round"></line>
        <line x1="43.3262108" y1="99.0162658" x2="42.942258" y2="88.0196165" id="Path-29-Copy-2" stroke="#697386" stroke-width="1.5" stroke-linecap="round"></line>
        <g id="Group-3" transform="translate(46.592111, 108.693423)" stroke="#697386" stroke-width="1.5">
            <path d="M3.0808462,0 L35.7922803,0 C37.3670908,-6.53924325e-06 38.6738383,1.21767267 38.7848269,2.78856721 C39.2095007,8.79925263 39.4633865,13.2075465 39.5464844,16.0134487 C39.6292829,18.8092444 39.6402638,23.3145549 39.579427,29.52938 C39.5633066,31.1746908 38.2249605,32.5 36.5795707,32.5 L4.08893309,32.5 C2.49085447,32.5000145 1.17329672,31.2472856 1.09273321,29.6512389 C0.806674306,23.9841161 0.60987782,19.7389367 0.50234375,16.9157008 C0.39417797,14.0758797 0.25404205,9.46426205 0.0819359874,3.08084774 C0.0372883456,1.42459915 1.34374305,0.0457446295 2.99999145,0.00108978241 C3.02693691,0.000363293794 3.05389095,4.95160026e-18 3.0808462,0 Z" id="Path-20"></path>
            <path d="M2.23789062,30.546875 C8.02851563,22.5994792 12.2065104,18.6257813 14.771875,18.6257813 C18.6199219,18.6257813 21.7352907,20.3892578 22.832947,20.8041016" id="Path-21" stroke-linecap="round"></path>
            <path d="M16.9058594,32.0175781 C23.021875,21.325651 27.5552734,15.5875 30.5060547,14.803125 C34.9322266,13.6265625 39.0835938,18.3710938 39.0835938,18.6878906" id="Path-21" stroke-linecap="round"></path>
            <path d="M8.96210938,13.6257813 C11.3425781,14.1155818 13.9509766,11.7236328 13.3621094,9.22578125 C12.7732422,6.72792969 11.3921623,4.82578125 8.96210938,4.82578125 C6.53205648,4.82578125 4.84335937,6.91640625 4.56210938,9.22578125 C4.28085938,11.5351563 6.58164063,13.1359807 8.96210938,13.6257813 Z" id="Oval"></path>
        </g>
        <path d="M82.1762607,113.01716 C82.1762607,114.045473 83.6264968,117.770814 78.604583,117.770814 C76.4393073,117.770814 76.0700972,119.129045 77.7226194,119.500521 C79.9027841,119.990607 82.9367664,119.269425 83.3780305,117.770814 C84.0574571,115.46336 84.0574571,113.167174 83.3780305,110.882255 C82.5768507,111.619984 82.1762607,112.331619 82.1762607,113.01716 Z" id="Path-16" fill-opacity="0.245859" fill="#4E566D" opacity="0.751232329" transform="translate(80.290605, 115.267649) scale(-1, 1) rotate(-180.000000) translate(-80.290605, -115.267649) "></path>
        <g id="Group-2" transform="translate(111.663796, 65.264437) rotate(-14.000000) translate(-111.663796, -65.264437) translate(91.663796, 48.264437)">
            <path d="M12.4204405,1 L27.5434169,1 C34.1499294,1.00000063 39.5138137,6.34000046 39.5432967,12.9464473 C39.5454218,13.4226291 39.5464844,13.9130398 39.5464844,14.4176794 C39.5464844,25.3674069 36.0488986,31.8948472 29.0537269,34 L29.0319547,28.2317717 L12.5674032,28.2317717 C6.17588319,28.2317693 0.906026618,23.222034 0.582763545,16.838694 C0.55194577,16.2301484 0.525139172,15.6751427 0.50234375,15.173677 C0.479718853,14.6759625 0.455695212,14.113295 0.430272828,13.4856743 C0.162041861,6.86368709 5.31277981,1.27806234 11.9347671,1.00983231 C12.0965753,1.00327811 12.2584996,1 12.4204405,1 Z" id="Path-20-Copy" stroke="#697386" stroke-width="1.5" stroke-linejoin="round"></path>
            <line x1="9" y1="11.5733333" x2="31.096849" y2="11.5733333" id="Path-29-Copy-4" stroke="#697386" stroke-width="1.5" stroke-linecap="round"></line>
            <line x1="9" y1="18.36" x2="21.9235156" y2="18.36" id="Path-29-Copy-3" stroke="#697386" stroke-width="1.5" stroke-linecap="round"></line>
            <path d="M29.3400144,12.6680457 C33.6456474,12.6680457 34.6206055,11.5505642 35.9627068,10.2579933 C37.3048081,8.96542231 38.4910756,4.95786385 39.2741767,4.95786385 C40.0572779,4.95786385 38.7324501,8.63607499 37.5326515,10.2034359 C36.3328529,11.7707967 34.1845854,13.636072 30.6847863,13.9268247 C27.1849873,14.2175775 22.8095983,12.3963171 23.6037872,11.3606039 C24.397976,10.3248907 25.0343815,12.6680457 29.3400144,12.6680457 Z" id="Path-17" fill-opacity="0.245859" fill="#4E566D" opacity="0.751232329" transform="translate(31.509337, 9.457864) rotate(-110.000000) translate(-31.509337, -9.457864) "></path>
        </g>
        <path d="M113.63441,141.02811 L113.63441,141.02811 L95.6562285,141.02811 C94.0338533,141.02811 92.7054199,139.738321 92.657537,138.116653 C92.3395264,127.346476 92.1231491,119.36598 92.0084051,114.175164 C91.8929599,108.952625 91.7410966,100.252397 91.5517486,88.0744797 C91.5272098,86.4178277 92.8494279,85.0540822 94.5060798,85.0281104 C94.5215377,85.0281104 94.5369971,85.0281104 94.5524496,85.0281104 L127.21371,85.0281104 C128.821992,85.0281104 130.144168,86.2963439 130.211114,87.9032324 C130.683892,99.2511608 130.964369,107.490255 131.052546,112.620514 C131.083198,114.403925 131.104008,116.591037 131.114975,119.181851" id="Path" stroke="#697386" stroke-width="1.5" stroke-linecap="round"></path>
        <g id="Group" transform="translate(116.064538, 122.662657)">
            <path d="M11,21 C16.6873854,21 22,16.3991922 22,10.5686502 C22,7.5994652 20.6285298,4.91358359 18.4294818,2.99246834 C16.3102936,1.14111972 13.4225443,0 10.2529963,0 C3.79445849,0 0,4.23858309 0,10.5686502 C0,16.8987173 5.31261463,21 11,21 Z" id="Oval" stroke="#697386" stroke-width="1.5"></path>
            <path d="M16,7 C15.9912375,7.00896054 15.9822081,7.01757515 15.9729275,7.0258286 L8.27020793,13.876079 C8.07744995,14.0475043 7.80557185,14.0403776 7.61991549,13.8590332 L5,10.5" id="Path" stroke="#697386" stroke-width="1.5" stroke-linecap="round" stroke-linejoin="round"></path>
            <path d="M10.5060174,17.9911885 C14.8116503,17.9911885 15.7866085,16.873707 17.1287097,15.581136 C18.470811,14.288565 19.6570785,10.2810066 20.4401797,10.2810066 C21.2232808,10.2810066 19.8984531,13.9592177 18.6986544,15.5265786 C17.4988558,17.0939394 15.3505883,18.9592147 11.8507893,19.2499674 C8.35099026,19.5407202 3.97560124,17.7194598 4.7697901,16.6837466 C5.56397896,15.6480334 6.20038443,17.9911885 10.5060174,17.9911885 Z" id="Path-17" fill-opacity="0.245859" fill="#4E566D" opacity="0.751232329"></path>
        </g>
        <g id="Group-18-Copy" transform="translate(108.506061, 92.028110)">
            <path d="M0.891228213,12.6759327 C1.7950523,11.5141233 4.70963859,11.7284682 5.72941219,11.5141233 C8.70213428,10.8892905 3.32375645,9.72516283 3.47732706,5.5365551 C3.63089767,1.34794738 3.82666945,0.369750833 7.75317576,0.0242879192 C11.6796821,-0.321174994 11.8815096,3.09674102 11.8815096,5.30776044 C11.8815096,7.51877986 10.7884426,8.3558012 9.6369942,9.0836294 C8.48554578,9.81145759 8.79107844,11.9991055 10.6175563,11.8381544 C12.4440341,11.6772033 14.8259399,11.887263 14.6528773,15.3489887" id="Path" stroke="#697386" stroke-linecap="round"></path>
            <path d="M3.92176401,11.7556445 C6.5077367,14.5283053 9.09370938,14.5283053 11.6796821,11.7556445" id="Path-6" stroke="#697386" opacity="0.900000036"></path>
            <path d="M15.7221004,14.6832758 C16.1395145,14.8095765 16.3482216,14.5261442 16.3482216,13.832979 C16.3482216,12.7932312 16.193342,11.6005531 14.5465347,10.8308581 C12.8997274,10.061163 10.5237871,9.98262662 10.5237871,10.8308581 C12.4578635,10.7351583 13.7987794,10.995337 14.5465347,11.6113944 C15.5673804,12.4524443 15.9592357,13.4764047 15.7221004,14.6832758 Z" id="Path-7" fill-opacity="0.245859" fill="#4E566D" opacity="0.751232329"></path>
            <path d="M5.23462879,9.45993789 C7.06201998,10.2290413 8.43213855,10.1840688 9.34498449,9.32502038" id="Path-8" stroke="#697386"></path>
            <path d="M10.2699066,5.71710654 C10.7658602,4.3792173 10.1667702,2.79401438 9.46704205,1.99809612 C8.42199897,0.809393273 7.39542729,1.86054619 7.39542729,1.31979751 C7.39542729,0.779048827 9.61715183,0.0919833099 10.5697401,2.67528547 C11.1100175,4.14045118 11.0239846,5.18809998 10.8892426,5.80668987 C10.7805464,6.30570534 10.2159635,7.74699654 9.61715183,8.02294948 C8.89453329,8.35595689 9.77395308,7.05499578 10.2699066,5.71710654 Z" id="Path-9" fill-opacity="0.245859" fill="#4E566D" opacity="0.751232329"></path>
        </g>
        <g id="Group-18" transform="translate(97.506061, 93.028110)">
            <path d="M0.000178019606,15.9146357 C-0.00833791088,14.5300401 0.28867882,13.4504724 0.891228213,12.6759327 C1.7950523,11.5141233 4.70963859,11.7284682 5.72941219,11.5141233 C8.70213428,10.8892905 3.32375645,9.72516283 3.47732706,5.5365551 C3.63089767,1.34794738 3.82666945,0.369750833 7.75317576,0.0242879192 C11.6796821,-0.321174994 11.8815096,3.09674102 11.8815096,5.30776044 C11.8815096,7.51877986 10.7884426,8.3558012 9.6369942,9.0836294 C8.48554578,9.81145759 8.79107844,11.9991055 10.6175563,11.8381544 C12.4440341,11.6772033 14.8259399,11.887263 14.6528773,15.3489887" id="Path-4" stroke="#697386" stroke-linecap="round"></path>
            <path d="M3.92176401,11.7556445 C6.5077367,14.5283053 9.09370938,14.5283053 11.6796821,11.7556445" id="Path-6" stroke="#697386" opacity="0.900000036"></path>
            <path d="M5.23462879,9.45993789 C7.06201998,10.2290413 8.43213855,10.1840688 9.34498449,9.32502038" id="Path-8" stroke="#697386"></path>
            <path d="M10.2342143,5.80621994 C10.7301679,4.46833071 10.1310779,2.88312778 9.43134973,2.08720953 C8.38630665,0.898506678 7.35973496,1.9496596 7.35973496,1.40891092 C7.35973496,0.868162232 9.58145951,0.181096715 10.5340478,2.76439887 C11.0743252,4.22956459 10.9882923,5.27721338 10.8535502,5.89580328 C10.7448541,6.39481875 10.1802711,7.83610995 9.58145951,8.11206288 C8.85884096,8.44507029 9.73826076,7.14410918 10.2342143,5.80621994 Z" id="Path-9" fill-opacity="0.245859" fill="#4E566D" opacity="0.751232329"></path>
        </g>
        <polygon id="Star" stroke="#697386" stroke-linejoin="round" transform="translate(46.107009, 34.135119) rotate(45.000000) translate(-46.107009, -34.135119) " points="46.1757896 35.6806289 43.9781602 36.6888679 44.8179821 34.3228215 43.4339406 31 46.1073437 33.0334599 48.5887973 32.0782307 47.4651512 34.3912673 48.7800775 37.270239"></polygon>
        <path d="M36.2933333,110.488798 C37.6564931,110.054078 38.5866667,109.709005 38.5866667,108.747081 C38.5866667,107.785157 37.1630382,107.785157 36.2933333,107.005363 C35.4236285,106.22557 34,107.785157 34,108.747081 C34,109.709005 34.9301736,110.923519 36.2933333,110.488798 Z" id="Oval" stroke="#697386"></path>
        <path d="M134.146667,81.4605386 C134.828247,81.1743386 135.293333,80.9471585 135.293333,80.313872 C135.293333,79.6805855 134.581519,79.6805855 134.146667,79.1672053 C133.711814,78.6538252 133,79.6805855 133,80.313872 C133,80.9471585 133.465087,81.7467387 134.146667,81.4605386 Z" id="Oval" stroke="#697386"></path>
        <polygon id="Star" stroke="#697386" stroke-linejoin="round" transform="translate(140.858076, 119.886187) rotate(45.000000) translate(-140.858076, -119.886187) " points="140.939435 121.71433 138.339915 122.90695 139.333319 120.108214 137.696172 116.177734 140.858472 118.583062 143.79372 117.453145 142.464588 120.189177 144.019981 123.594639"></polygon>
        <path d="M109,147.149414 C109.594401,146.899821 110,146.701699 110,146.149414 C110,145.597129 109.379232,145.597129 109,145.149414 C108.620768,144.701699 108,145.597129 108,146.149414 C108,146.701699 108.405599,147.399007 109,147.149414 Z" id="Oval" stroke="#697386"></path>
        <path d="M112,150.71176 C114.736816,148.279133 116.814209,147.500319 118.232178,148.375319 C120.359131,149.687819 121.966797,152.024016 125.626953,149.019133 C129.287109,146.014251 130.309427,151.197113 134.581055,150.71176 C138.852682,150.226408 138.430908,146.704715 142.902588,149.386112" id="Path-25" stroke="#6C7688" stroke-width="1.5" stroke-linecap="round"></path>
        <path d="M98.0848861,138.807726 C103.482486,138.988554 107.36658,139.018159 109.263703,138.50181 C111.160826,137.985461 110.821182,138.124116 111.469684,137.532884 C111.86115,137.175988 112.320893,136.533517 112.848913,135.605471 C113.260888,111.207726 112.767867,99.287813 111.369851,99.8457319 C110.473847,100.203308 111.659786,121.504544 111.469684,131.165086 C111.398677,134.773499 110.368269,136.896098 108.37846,137.532884 C105.996509,137.206907 102.891813,137.09095 99.0643699,137.185014 C93.3232055,137.32611 91.9426751,138.601952 98.0848861,138.807726 Z" id="Path-15" fill-opacity="0.245859" fill="#4E566D" opacity="0.751232329" transform="translate(103.532185, 119.376959) scale(-1, 1) translate(-103.532185, -119.376959) "></path>
    </g>
</svg>